# xmcd
#
# Track frame offsets:
#	150
#	12655
#	25110
#	39647
#	50602
#	63735
#	76392
#	91260
#	104967
#	117817
#	131797
#	145607
#	158875
#	173782
#	188985
#	204270
#	217607
#	225340
#
# Disc length: 3177 seconds
#
# Revision: 0
# Processed by: cddbd v1.4PL0 Copyright (c) Steve Scherf et al.
# Submitted via: dBpowerAMP V4.0
#
DISCID=f50c6712
DTITLE=Billie Holiday - Lady Sings The Blues
DYEAR=1900
DGENRE=Blues
TTITLE0=The Very Thought Of You
TTITLE1=Your Mother's Son-In-Law
TTITLE2=I Cried For You
TTITLE3=When A Woman Loves A Man
TTITLE4=You Go To My Head
TTITLE5=I Can't Get Started
TTITLE6=Strange Fruit
TTITLE7=Some Other Spring
TTITLE8=Them There Eyes
TTITLE9=The ManI Love
TTITLE10=Night And Day
TTITLE11=God Bless The Child
TTITLE12=Travelin' Light
TTITLE13=Lover Man
TTITLE14=Don't Explain
TTITLE15=Porgy
TTITLE16=Interview Av Olle Helander
TTITLE17=My Man
EXTD=
EXTT0=
EXTT1=
EXTT2=
EXTT3=
EXTT4=
EXTT5=
EXTT6=
EXTT7=
EXTT8=
EXTT9=
EXTT10=
EXTT11=
EXTT12=
EXTT13=
EXTT14=
EXTT15=
EXTT16=
EXTT17=
PLAYORDER=
